PathFileType	4	(X/Y/Z)	C:/Users/opensim2020/Desktop/walking_exp_matlab/subject06_walking15_straight_04.trc																																																																																																																																											
DataRate	CameraRate	NumFrames	NumMarkers	Units	OrigDataRate	OrigDataStartFrame	OrigNumFrames																																																																																																																																							
100	100	5	47	mm	100	2901	157																																																																																																																																							
Frame#	Time	LFHD			RFHD			LBHD			RBHD			C7			T10			CLAV			STRN			RBAK			LSHO			LUPA			LELB			LFRM			LWRA			LWRB			LFIN			RSHO			RUPA			RELB			RFRM			RWRA			RWRB			RFIN			LASI			RASI			LPSI			RPSI			LTHI			LKNE			LTIB			LANK			LHEE			LTOE			RTHI			RKNE			RTIB			RANK			RHEE			RTOE			*39			*40			*41			*42			*43			*44			*45			*46		
		X1	Y1	Z1	X2	Y2	Z2	X3	Y3	Z3	X4	Y4	Z4	X5	Y5	Z5	X6	Y6	Z6	X7	Y7	Z7	X8	Y8	Z8	X9	Y9	Z9	X10	Y10	Z10	X11	Y11	Z11	X12	Y12	Z12	X13	Y13	Z13	X14	Y14	Z14	X15	Y15	Z15	X16	Y16	Z16	X17	Y17	Z17	X18	Y18	Z18	X19	Y19	Z19	X20	Y20	Z20	X21	Y21	Z21	X22	Y22	Z22	X23	Y23	Z23	X24	Y24	Z24	X25	Y25	Z25	X26	Y26	Z26	X27	Y27	Z27	X28	Y28	Z28	X29	Y29	Z29	X30	Y30	Z30	X31	Y31	Z31	X32	Y32	Z32	X33	Y33	Z33	X34	Y34	Z34	X35	Y35	Z35	X36	Y36	Z36	X37	Y37	Z37	X38	Y38	Z38	X39	Y39	Z39	X40	Y40	Z40	X41	Y41	Z41	X42	Y42	Z42	X43	Y43	Z43	X44	Y44	Z44	X45	Y45	Z45	X46	Y46	Z46	X47	Y47	Z47
																																																																																																																																														
40	0.39	-607.38147	1662.18005	927.08282	-580.9317	1656.0166	1056.54102	-737.28748	1607.20178	955.65393	-709.23145	1606.19702	1081.83813	-726.02979	1450.59094	1003.49945	-753.71112	1120.9325	1008.49847	-613.55084	1376.96533	998.49677	-568.85718	1205.39478	989.48712	-792.72949	1278.28357	1082.29126	-675.00067	1407.83386	839.77643	-661.24707	1206.90381	765.7677	-649.60236	1094.40344	754.09216	-565.68549	970.20203	737.65784	-457.79944	905.08362	786.12915	-505.96979	867.70709	749.50891	-428.10846	821.38062	752.85541	-654.1001	1405.89343	1161.92371	-700.6073	1210.5592	1250.76599	-698.81451	1088.3562	1263.59827	-680.86298	969.46875	1279.69873	-615.01471	832.94067	1245.47168	-669.7912	832.44995	1287.02588	-631.76843	756.57379	1285.86353	-581.203	961.62061	895.71509	-564.6192	977.83716	1115.32544	-736.75116	984.96783	933.99451	-718.66626	997.69458	1100.349	-647.59296	637.18689	844.06592	-636.45593	474.32852	857.90527	-829.88593	321.69199	874.1944	-960.52838	214.25964	915.21063	-987.73956	234.17308	966.69159	-915.25055	74.53252	903.82385	-587.35809	642.94891	1178.81531	-567.86816	519.66925	1151.14832	-596.883	252.6109	1152.39319	-603.56189	67.45986	1103.09619	-642.09814	43.16212	1058.46436	-449.84723	33.05674	1102.22412	-693.87378	1702.59009	1004.10419	NaN	NaN	NaN	NaN	NaN	NaN	NaN	NaN	NaN	NaN	NaN	NaN	NaN	NaN	NaN	NaN	NaN	NaN	NaN	NaN	NaN
41	0.4	-596.76471	1662.61389	927.97534	-570.27686	1656.64587	1057.45715	-726.69025	1607.97119	956.60364	-699.00415	1607.24658	1083.08362	-715.85004	1451.38098	1004.97198	-743.88422	1121.75049	1010.36255	-603.54102	1377.42334	999.67743	-559.36005	1205.76306	990.80768	-782.44446	1279.0177	1084.68481	-665.44696	1407.84814	840.9751	-653.28839	1206.32654	767.84198	-642.62463	1093.62488	756.09625	-561.56525	967.15198	739.20679	-455.28348	898.75916	786.9093	-505.05911	862.81122	750.81256	-428.64056	814.20355	753.30426	-643.14594	1406.56946	1163.30762	-688.37463	1211.07385	1252.81958	-685.68781	1088.9082	1265.90649	-665.03552	970.48126	1281.55933	-596.47186	835.5603	1245.87195	-650.91882	833.84875	1288.2146	-610.6427	758.97729	1286.52344	-571.38043	962.44995	897.03229	-555.24146	978.43341	1116.75793	-727.07428	985.49847	935.05963	-709.37842	998.33325	1101.52698	-633.10016	638.34198	844.94617	-618.263	475.9722	858.46136	-811.0127	324.63486	876.0719	-941.27191	216.58716	917.33508	-969.08575	236.0502	968.83069	-894.11841	77.77309	905.28235	-580.55634	642.84705	1180.03271	-562.60034	519.32489	1152.29993	-594.37329	252.38728	1153.12097	-603.42731	67.44519	1103.18323	-642.10156	43.21534	1058.57837	-449.71198	32.81786	1102.36536	-683.22406	1703.37952	1004.9472	NaN	NaN	NaN	NaN	NaN	NaN	NaN	NaN	NaN	NaN	NaN	NaN	NaN	NaN	NaN	NaN	NaN	NaN	NaN	NaN	NaN
42	0.41	-586.10828	1663.0437	928.79657	-559.65674	1657.18152	1058.30725	-716.23853	1608.74573	957.57367	-688.48535	1608.13965	1083.96558	-705.69244	1452.12122	1006.3775	-734.24072	1122.53833	1012.14063	-593.54498	1377.84753	1000.83777	-549.87415	1206.07288	992.08179	-772.36902	1279.92175	1086.95496	-655.9801	1407.94373	842.19568	-645.20325	1205.93213	769.87427	-635.49255	1092.99561	758.41846	-557.90271	964.21899	741.07281	-453.48792	892.34204	787.70789	-504.95172	858.16083	751.77032	-429.81918	807.19781	753.53217	-632.23413	1407.23706	1164.56543	-676.10376	1211.56567	1254.77417	-672.08362	1089.54993	1268.19507	-649.10657	971.55225	1283.30298	-578.09009	838.62744	1246.38733	-631.9494	835.41522	1289.29663	-589.81909	761.74127	1287.42188	-561.56683	963.27258	898.43225	-546.07007	978.94745	1118.17383	-717.44177	986.07001	936.12714	-700.09381	998.84515	1102.65869	-618.29321	639.57721	845.68231	-599.93805	477.74704	859.29572	-791.58685	326.75565	877.73364	-921.26392	217.58495	919.26019	-949.45416	236.57172	970.84851	-872.21149	79.70872	906.75824	-573.89685	642.72803	1181.00745	-557.39673	518.91772	1153.18628	-592.50146	252.35822	1153.48914	-603.18036	67.47805	1103.12341	-642.07031	43.32944	1058.56665	-449.55701	32.62237	1102.44214	-672.43323	1704.10986	1005.69702	NaN	NaN	NaN	NaN	NaN	NaN	NaN	NaN	NaN	NaN	NaN	NaN	NaN	NaN	NaN	NaN	NaN	NaN	NaN	NaN	NaN
43	0.42	-575.52002	1663.3501	929.51135	-549.02008	1657.62109	1059.06372	-705.74255	1609.56641	958.43329	-678.01825	1609.0343	1084.89893	-695.68701	1452.86731	1007.76306	-724.68585	1123.35449	1013.81885	-583.64862	1378.29175	1001.90955	-540.4693	1206.34119	993.34766	-762.33612	1280.85608	1089.03015	-646.75757	1408.13806	843.40381	-637.14545	1205.69971	771.80835	-628.46454	1092.5907	760.80359	-554.47253	961.37872	743.13306	-452.18286	886.00751	788.38684	-505.04678	853.43658	752.81091	-431.7113	800.45215	753.58258	-621.38391	1407.92236	1165.73132	-663.75067	1212.17456	1256.71362	-658.47723	1090.21045	1270.36316	-633.09308	972.71185	1285.00391	-559.59351	841.71765	1246.88293	-612.73651	837.12115	1290.40137	-568.68103	764.565	1287.79443	-551.63788	964.08185	899.94647	-536.95557	979.33325	1119.74084	-707.82275	986.65393	937.25323	-690.88446	999.30176	1103.83008	-603.50464	641.0473	846.47223	-581.8382	479.73083	860.09149	-771.9566	328.04935	878.94458	-900.6106	217.39207	921.03052	-929.22797	235.88846	972.75787	-849.38226	80.53572	908.25714	-567.63611	642.48199	1181.5387	-552.3562	518.38049	1153.87451	-590.7489	252.25351	1153.65381	-602.91443	67.54835	1102.8761	-641.9848	43.47707	1058.38831	-449.22806	32.33632	1102.49487	-661.64386	1704.81885	1006.4007	NaN	NaN	NaN	NaN	NaN	NaN	NaN	NaN	NaN	NaN	NaN	NaN	NaN	NaN	NaN	NaN	NaN	NaN	NaN	NaN	NaN
44	0.43	-564.89178	1663.55493	930.20624	-538.34625	1657.953	1059.68628	-695.34418	1610.34912	959.24457	-667.45465	1609.91858	1085.66211	-685.70477	1453.5448	1009.10382	-715.10083	1124.06348	1015.46301	-573.98492	1378.67737	1002.8996	-531.17468	1206.59766	994.57861	-752.33862	1281.78552	1090.95508	-637.65051	1408.37817	844.55194	-629.17871	1205.5708	773.67267	-621.51727	1092.28198	763.20514	-551.50812	958.83984	744.96136	-451.35535	879.92603	788.92108	-505.9339	849.25232	754.26251	-434.20071	793.89294	753.54742	-610.70459	1408.63245	1166.74109	-651.38782	1212.78955	1258.50562	-644.76599	1090.95728	1272.39197	-617.0108	974.05072	1286.56519	-541.11835	844.86847	1247.3551	-593.71277	838.99121	1291.32043	-547.7522	767.69019	1288.38318	-541.71777	964.89484	901.51544	-528.11578	979.59491	1121.4491	-698.16028	987.32147	938.38715	-681.82416	999.64728	1105.0509	-588.60693	642.47809	847.487	-563.72742	481.64893	861.14368	-751.85651	328.07175	880.18817	-879.39111	216.05167	922.65338	-908.47101	233.92857	974.25024	-824.96588	80.81785	909.68195	-561.28314	642.12781	1182.37097	-547.73114	517.81403	1154.60242	-589.53967	252.16928	1153.38049	-602.77765	67.68869	1102.60901	-641.90332	43.61456	1058.12451	-448.97058	32.08876	1102.50891	-650.80927	1705.53894	1007.10046	NaN	NaN	NaN	NaN	NaN	NaN	NaN	NaN	NaN	NaN	NaN	NaN	NaN	NaN	NaN	NaN	NaN	NaN	NaN	NaN	NaN
